<svg width="230" height="32" viewBox="0 0 230 32" fill="none" xmlns="http://www.w3.org/2000/svg">
<path fill-rule="evenodd" clip-rule="evenodd" d="M24.7831 28.2831C17.5777 28.2831 11.9815 23.1625 11.9815 15.6644C11.9815 8.12972 17.5777 3.04565 24.7831 3.04565C29.6843 3.04565 32.7567 5.5694 34.5489 8.49548L30.9279 10.3974C29.7575 8.34918 27.38 6.84956 24.7831 6.84956C19.9551 6.84956 16.3707 10.5072 16.3707 15.6644C16.3707 20.7484 19.9551 24.4792 24.7831 24.4792C27.38 24.4792 29.7575 22.943 30.9279 20.9313L34.5855 22.7601C32.7201 25.6862 29.6843 28.2831 24.7831 28.2831ZM44.9731 28.2831C39.3404 28.2831 35.9023 24.0403 35.9023 18.9928C35.9023 13.9087 39.3404 9.73906 44.9731 9.73906C50.6058 9.73906 54.044 13.9087 54.044 18.9928C54.044 24.0403 50.6058 28.2831 44.9731 28.2831ZM44.9731 24.8815C48.2649 24.8815 50.0572 22.1383 50.0572 18.9928C50.0572 15.8838 48.2649 13.1406 44.9731 13.1406C41.7178 13.1406 39.889 15.8838 39.889 18.9928C39.889 22.1383 41.7178 24.8815 44.9731 24.8815ZM82.5732 27.8442H78.7328V16.3227C78.7328 14.4208 77.8915 13.1406 75.8067 13.1406C74.0876 13.1406 72.4783 14.3111 71.7102 15.4815V27.8442H67.8697V16.3227C67.8697 14.4208 67.065 13.1406 64.9802 13.1406C63.2611 13.1406 61.6883 14.3476 60.8837 15.4815V27.8442H57.0432V10.178H60.8837V12.5554C61.6518 11.4947 63.9561 9.73906 66.6627 9.73906C69.2962 9.73906 70.9055 11.0558 71.4907 12.9578C72.4783 11.385 74.8191 9.73906 77.4892 9.73906C80.7079 9.73906 82.5732 11.4947 82.5732 15.0792V27.8442ZM112.163 27.8442H108.323V16.3227C108.323 14.4208 107.482 13.1406 105.397 13.1406C103.678 13.1406 102.068 14.3111 101.3 15.4815V27.8442H97.4597V16.3227C97.4597 14.4208 96.655 13.1406 94.5702 13.1406C92.8511 13.1406 91.2783 14.3476 90.4737 15.4815V27.8442H86.6332V10.178H90.4737V12.5554C91.2418 11.4947 93.546 9.73906 96.2527 9.73906C98.8861 9.73906 100.495 11.0558 101.081 12.9578C102.068 11.385 104.409 9.73906 107.079 9.73906C110.298 9.73906 112.163 11.4947 112.163 15.0792V27.8442ZM124.416 28.2831C119.076 28.2831 115.162 24.5889 115.162 18.9928C115.162 13.8722 118.893 9.73906 124.124 9.73906C129.427 9.73906 132.792 13.7624 132.792 19.322V20.273H119.186C119.478 22.9064 121.454 25.1376 124.782 25.1376C126.538 25.1376 128.549 24.4426 129.829 23.1625L131.585 25.6862C129.793 27.3687 127.196 28.2831 124.416 28.2831ZM129.098 17.5298C128.988 15.4449 127.562 12.8846 124.087 12.8846C120.832 12.8846 119.296 15.4083 119.149 17.5298H129.098ZM139.522 27.8442H135.682V10.178H139.522V12.7383C140.875 11.0558 142.997 9.73906 145.265 9.73906V13.543C144.935 13.4698 144.57 13.4332 144.094 13.4332C142.448 13.4332 140.29 14.5305 139.522 15.8107V27.8442ZM155.506 28.2831C150.166 28.2831 146.398 24.3329 146.398 18.9928C146.398 13.6527 150.166 9.73906 155.506 9.73906C158.981 9.73906 161.029 11.2021 162.272 12.8846L159.749 15.1889C158.761 13.799 157.408 13.1406 155.689 13.1406C152.507 13.1406 150.349 15.5547 150.349 18.9928C150.349 22.4309 152.507 24.8815 155.689 24.8815C157.408 24.8815 158.761 24.15 159.749 22.7601L162.272 25.1376C161.029 26.7835 158.981 28.2831 155.506 28.2831ZM172.953 28.2831C167.612 28.2831 163.699 24.5889 163.699 18.9928C163.699 13.8722 167.43 9.73906 172.66 9.73906C177.963 9.73906 181.328 13.7624 181.328 19.322V20.273H167.722C168.015 22.9064 169.99 25.1376 173.318 25.1376C175.074 25.1376 177.086 24.4426 178.366 23.1625L180.121 25.6862C178.329 27.3687 175.732 28.2831 172.953 28.2831ZM177.634 17.5298C177.525 15.4449 176.098 12.8846 172.623 12.8846C169.368 12.8846 167.832 15.4083 167.686 17.5298H177.634Z" fill="#03182B"/>
<path fill-rule="evenodd" clip-rule="evenodd" d="M189.266 27.8442H184.986V3.44799H189.266V27.8442ZM204.957 28.2831C197.641 28.2831 192.484 22.943 192.484 15.6644C192.484 8.38575 197.641 3.04565 204.957 3.04565C212.235 3.04565 217.429 8.38575 217.429 15.6644C217.429 19.1757 216.222 22.2115 214.174 24.4426L216.185 26.7103L213.223 29.1975L211.101 26.8201C209.309 27.771 207.224 28.2831 204.957 28.2831ZM204.957 24.4792C206.237 24.4792 207.371 24.2232 208.395 23.7477L205.359 20.3095L208.358 17.8224L211.394 21.2605C212.455 19.7609 213.04 17.8224 213.04 15.6644C213.04 10.6169 209.858 6.84956 204.957 6.84956C200.019 6.84956 196.873 10.6169 196.873 15.6644C196.873 20.6753 200.019 24.4792 204.957 24.4792Z" fill="#307DEE"/>
</svg>
